<?xml version="1.0" encoding="UTF-8" standalone="no"?>
<svg
   xmlns:dc="http://purl.org/dc/elements/1.1/"
   xmlns:cc="http://creativecommons.org/ns#"
   xmlns:rdf="http://www.w3.org/1999/02/22-rdf-syntax-ns#"
   xmlns:svg="http://www.w3.org/2000/svg"
   xmlns="http://www.w3.org/2000/svg"
   viewBox="0 0 1056 816"
   height="816"
   width="1056"
   xml:space="preserve"
   id="svg2"
   version="1.1"><metadata
     id="metadata8"><rdf:RDF><cc:Work
         rdf:about=""><dc:format>image/svg+xml</dc:format><dc:type
           rdf:resource="http://purl.org/dc/dcmitype/StillImage" /></cc:Work></rdf:RDF></metadata><defs
     id="defs6"><clipPath
       id="clipPath14"
       clipPathUnits="userSpaceOnUse"><path
         id="path12"
         d="M 0,0 H 612 V 792 H 0 Z" /></clipPath><clipPath
       id="clipPath24"
       clipPathUnits="userSpaceOnUse"><path
         id="path22"
         d="m 531.488,396 h 5057.02 V 3960 H 531.488 Z" /></clipPath><clipPath
       id="clipPath36"
       clipPathUnits="userSpaceOnUse"><path
         id="path34"
         d="m 531.488,3960 h 5057.02 V 7524 H 531.488 Z" /></clipPath></defs><g
     clip-path="url(#clipPath14)"
     transform="matrix(0,1.3333333,1.3333333,0,0,0)"
     id="g10"><g
       transform="scale(0.1)"
       id="g16"><g
         id="g18"><g
           clip-path="url(#clipPath24)"
           id="g20"><path
             id="path26"
             style="fill:none;stroke:#204ba0;stroke-width:8.49526978;stroke-linecap:butt;stroke-linejoin:miter;stroke-miterlimit:4;stroke-dasharray:none;stroke-opacity:1"
             d="m 1015.72,213.605 4.24,851.225" /><path
             id="path28"
             style="fill:none;stroke:#204ba0;stroke-width:8.49526978;stroke-linecap:butt;stroke-linejoin:miter;stroke-miterlimit:4;stroke-dasharray:none;stroke-opacity:1"
             d="M 647.344,888.961 H 1641.29" /></g></g><g
         id="g30"><g
           clip-path="url(#clipPath36)"
           id="g32"><path
             id="path38"
             style="fill:#100f0d;fill-opacity:1;fill-rule:nonzero;stroke:none"
             d="m 3436.31,6682.92 c -97.48,41.23 -199.83,65.95 -305.17,73.77 l 18.29,274.58 -327.26,-6.01 31.33,-287.36 c -36.64,-7.84 -72.8,-17.78 -108.39,-29.88 -0.61,-0.2 -1.22,-0.42 -1.82,-0.62 -3.53,-1.21 -7.06,-2.44 -10.58,-3.69 -1.08,-0.38 -2.15,-0.77 -3.22,-1.15 -3.06,-1.1 -6.11,-2.21 -9.15,-3.34 -1.29,-0.48 -2.58,-0.96 -3.87,-1.44 -2.87,-1.08 -5.72,-2.17 -8.58,-3.27 -1.35,-0.52 -2.71,-1.04 -4.06,-1.57 -2.92,-1.14 -5.83,-2.31 -8.75,-3.48 -1.22,-0.49 -2.44,-0.97 -3.66,-1.47 -4.08,-1.66 -8.16,-3.35 -12.23,-5.07 -88.9,-37.6 -170.8,-87.69 -244.45,-149.29 l -177.71,208.24 -230.07,-232.83 221.57,-182.58 c -33.79,-50.6 -62.8,-104.34 -86.74,-160.94 -37.77,-89.29 -61.65,-182.69 -71.41,-278.71 l -270.08,24.74 -2.12,-327.31 266.19,22.35 v -123.41 c -0.07,-26.25 -0.11,-55.24 -0.11,-88.99 h 0.11 v -1.57 h 124.43 c -95.83,-125.65 -143.76,-260.95 -143.76,-405.92 0,-166.72 44.1,-297.4 132.29,-392.03 88.19,-94.64 212.43,-141.94 372.69,-141.94 130.48,0 235.58,39.05 315.31,117.18 79.74,78.11 142.97,198.92 189.67,362.43 l 64.03,227.12 c 50.74,183.63 141.35,275.44 271.82,275.44 95.86,0 170.15,-28.2 222.89,-84.57 52.76,-56.38 79.13,-135.72 79.13,-237.99 0,-174.78 -99.85,-316.52 -299.6,-425.25 h -160.68 v -227.12 h 663.24 v 227.12 h -151.01 c 120.81,135.31 181.21,285.51 181.21,450.62 0,173.15 -48.32,311.27 -144.97,414.38 -96.64,103.08 -227.51,154.63 -392.63,154.63 -82.15,0 -156.63,-11.08 -223.49,-33.22 -66.84,-22.16 -130.06,-69.67 -189.67,-142.56 -59.59,-72.9 -107.52,-177.4 -143.76,-313.5 l -56.78,-213.83 c -26.58,-103.89 -58.78,-181.02 -96.65,-231.35 -37.85,-50.34 -93.02,-75.5 -165.51,-75.5 -75.69,0 -133.68,26.58 -173.96,79.73 -40.27,53.16 -60.41,129.66 -60.41,229.54 0,163.49 70.88,292.36 212.63,386.59 h 241.78 v 222.29 H 2378.8 c 0.11,29.5 0.21,58.26 0.27,83.56 0,0.17 0,0.35 0,0.52 0.02,10.1 0.04,19.63 0.05,28.44 0,0.13 0,0.27 0,0.4 0,1.69 0.01,3.36 0.01,4.99 0,0.08 0,0.16 0,0.24 0,1.52 0,3.01 0,4.48 0,0.22 0,0.44 0,0.66 0,1.5 0,2.96 0,4.4 0,0.23 0,0.46 0,0.69 0.01,2.86 0.01,5.61 0,8.24 0,0.3 0,0.59 0,0.89 0,2.56 0,5 0,7.31 -0.01,0.27 -0.01,0.54 -0.01,0.8 0,1.06 0,2.1 0,3.1 0,0.29 0,0.58 0,0.87 -0.01,0.89 -0.01,1.75 -0.01,2.58 0,0.19 0,0.38 0,0.56 -0.01,0.96 -0.01,1.89 -0.01,2.79 0,0.24 -0.01,0.47 -0.01,0.7 0,0.77 0,1.51 -0.01,2.23 0,0.12 0,0.25 0,0.37 0,0.84 -0.01,1.64 -0.01,2.4 -0.01,0.15 -0.01,0.29 -0.01,0.44 0,0.68 -0.01,1.35 -0.01,1.97 0,0.15 -0.01,0.3 -0.01,0.45 0,0.59 -0.01,1.15 -0.01,1.68 -0.01,0.13 -0.01,0.26 -0.01,0.38 -0.01,0.56 -0.01,1.09 -0.02,1.57 0,0.1 0,0.19 0,0.28 -0.01,0.41 -0.02,0.79 -0.02,1.14 -0.01,0.09 -0.01,0.18 -0.01,0.26 -0.01,0.38 -0.02,0.72 -0.02,1.02 -0.01,0.07 -0.01,0.13 -0.01,0.2 -0.01,0.25 -0.02,0.48 -0.03,0.67 0,0.03 0,0.07 0,0.09 -0.01,0.2 -0.02,0.35 -0.03,0.46 0,0.03 0,0.05 -0.01,0.07 -0.01,0.09 -0.02,0.15 -0.03,0.15 0,181.35 70.62,351.84 198.85,480.07 3.76,3.75 7.56,7.45 11.39,11.11 1.28,1.22 2.57,2.42 3.86,3.63 2.56,2.41 5.14,4.82 7.73,7.19 1.57,1.43 3.15,2.84 4.73,4.25 2.35,2.1 4.7,4.19 7.07,6.26 1.71,1.49 3.43,2.96 5.15,4.43 2.28,1.95 4.57,3.88 6.87,5.79 1.8,1.49 3.59,2.99 5.4,4.46 2.27,1.84 4.55,3.66 6.83,5.47 1.85,1.47 3.7,2.95 5.57,4.4 2.31,1.8 4.66,3.56 6.99,5.33 1.85,1.4 3.69,2.82 5.55,4.19 3.91,2.9 7.86,5.76 11.83,8.57 2.32,1.64 4.68,3.24 7.02,4.85 1.88,1.3 3.76,2.61 5.65,3.89 2.47,1.66 4.96,3.29 7.45,4.92 1.78,1.16 3.56,2.33 5.35,3.48 2.57,1.65 5.17,3.28 7.76,4.9 1.7,1.06 3.41,2.11 5.12,3.15 2.69,1.65 5.4,3.28 8.12,4.88 1.57,0.94 3.16,1.85 4.74,2.77 2.87,1.67 5.74,3.32 8.63,4.94 1.28,0.72 2.57,1.42 3.86,2.13 11.54,6.37 23.24,12.41 35.11,18.08 90.12,43.05 189.45,65.77 292.28,65.77 181.34,0 351.83,-70.62 480.06,-198.84 128.23,-128.23 198.85,-298.72 198.85,-480.07 0,-41.82 -3.85,-83.36 -11.39,-124.09 37.83,-23.33 72.39,-51.59 103.52,-84.79 51.03,-54.43 89.58,-118.27 115.51,-190.98 50.24,111.41 79.11,231.79 84.81,354.63 l 272.71,-11.38 -14.15,327.02 -285.39,-38.32 c -12.23,49.84 -28.39,98.75 -48.57,146.47 -41.34,97.74 -97.78,187.01 -168.02,266.16 l 204.64,183.62 -238.46,224.21 -178.5,-227.92 c -43.55,27.26 -89.28,51.12 -137.06,71.33" /><g
             transform="scale(10)"
             id="g40"><text
               id="text44"
               style="font-variant:normal;font-weight:normal;font-size:21.23819923px;font-family:Rockwell;-inkscape-font-specification:Rockwell-Regular;writing-mode:lr-tb;fill:#231f20;fill-opacity:1;fill-rule:nonzero;stroke:none"
               transform="matrix(0,1,1,0,118.474,484.622)"><tspan
                 id="tspan42"
                 y="0"
                 x="0 12.233203 26.568989 39.694195 53.116737 65.116318 78.241531 87.862434 93.617989 110.39616 116.89505 128.89464 141.99861 152.66019 165.72168">Spencer Dickson</tspan></text>
<text
               id="text50"
               style="font-variant:normal;font-weight:normal;font-size:12.74289989px;font-family:SourceCodePro;-inkscape-font-specification:SourceCodePro-Regular;writing-mode:lr-tb;fill:#231f20;fill-opacity:1;fill-rule:nonzero;stroke:none"
               transform="matrix(0,1,1,0,133.7662,497.7443)"><tspan
                 id="tspan46"
                 y="0"
                 x="0 7.64574 15.29148 22.93722 30.58296 38.228699 45.874439 53.52018 61.16592 68.811661 76.457397 84.103142 91.748878 99.394623 107.04036 114.6861 122.33184 129.97758 137.62332 145.26906">Manufacturing Design</tspan><tspan
                 id="tspan48"
                 y="369.367"
                 x="11.468 19.113741 26.75948 34.40522 42.050961 49.696701 57.342442 64.988182 72.633919 80.279663 87.9254 95.571136 103.21688 110.86262 118.50836 126.1541 133.79984">Brand Style Guide</tspan></text>
</g></g></g><path
         id="path52"
         style="fill:none;stroke:#ffffff;stroke-width:12.5;stroke-linecap:butt;stroke-linejoin:miter;stroke-miterlimit:10;stroke-dasharray:none;stroke-opacity:1"
         d="M 531.488,336 V 186 m 0,7398 v 150 M 5588.51,336 V 186 m 0,7398 v 150 M 471.488,396 h -150 m 5327.022,0 h 150 M 471.488,7524 h -150 m 5327.022,0 h 150" /><path
         id="path54"
         style="fill:none;stroke:#231f20;stroke-width:2.5;stroke-linecap:butt;stroke-linejoin:miter;stroke-miterlimit:10;stroke-dasharray:none;stroke-opacity:1"
         d="M 531.488,336 V 186 m 0,7398 v 150 M 5588.51,336 V 186 m 0,7398 v 150 M 471.488,396 h -150 m 5327.022,0 h 150 M 471.488,7524 h -150 m 5327.022,0 h 150" /><path
         id="path56"
         style="fill:none;stroke:#ffffff;stroke-width:12.5;stroke-linecap:butt;stroke-linejoin:miter;stroke-miterlimit:10;stroke-dasharray:none;stroke-opacity:1"
         d="m 420.516,3960 h -150 m 5428.964,0 h 150 m -5428.964,0 h -150 m 5428.964,0 h 150 m -5428.964,0 h -112.5 m 5391.464,0 h 112.5" /><path
         id="path58"
         style="fill:none;stroke:#231f20;stroke-width:2.5;stroke-linecap:butt;stroke-linejoin:miter;stroke-miterlimit:10;stroke-dasharray:none;stroke-opacity:1"
         d="m 420.516,3960 h -150 m 5428.964,0 h 150 m -5428.964,0 h -150 m 5428.964,0 h 150 m -5428.964,0 h -112.5 m 5391.464,0 h 112.5" /></g></g></svg>
